<svg xmlns="http://www.w3.org/2000/svg" version="1.1" xmlns:xlink="http://www.w3.org/1999/xlink" width="512" height="512" x="0" y="0" viewBox="0 0 43.349 43.349" style="enable-background:new 0 0 512 512" xml:space="preserve" fill-rule="evenodd"><g><path d="M24.703 43.35h-6.059c-1.965 0-3.094-.342-3.664-1.108-.736-.988-.322-2.369.203-4.118.349-1.162.744-2.481.864-3.907.29-3.453-.276-5.684-.823-7.843-.863-3.405-1.679-6.622 1.456-13.694 1.596-3.595 1.864-5.495 2.175-9.624a.474.474 0 0 1 .944.072c-.314 4.158-.606 6.221-2.253 9.937-3.003 6.772-2.263 9.693-1.404 13.077.54 2.13 1.152 4.544.848 8.154-.128 1.524-.538 2.893-.9 4.1-.449 1.495-.803 2.675-.35 3.281.363.488 1.313.726 2.904.726h6.059c1.593 0 2.544-.238 2.907-.726.452-.607.098-1.787-.35-3.28-.362-1.209-.773-2.577-.901-4.101-.304-3.61.308-6.025.849-8.154.857-3.384 1.599-6.305-1.404-13.077-1.649-3.716-1.94-5.78-2.254-9.937a.473.473 0 1 1 .944-.072c.311 4.13.58 6.029 2.174 9.624 3.137 7.072 2.32 10.29 1.458 13.694-.549 2.158-1.115 4.39-.824 7.843.12 1.426.516 2.744.864 3.907.525 1.749.939 3.13.203 4.118-.57.766-1.7 1.107-3.666 1.107z" fill="#e9d134" opacity="1" data-original="#000000"></path><path d="M24.79 14.436a.472.472 0 0 1-.397-.216c-.704-1.086-1.104-2.53-1.317-3.55a.474.474 0 0 1 .926-.193c.278 1.33.698 2.476 1.186 3.229a.472.472 0 0 1-.398.73zM24.941 34.546a.473.473 0 0 1-.471-.433c-.17-2.031-.09-3.95.245-5.868a.472.472 0 1 1 .933.162 21.65 21.65 0 0 0-.236 5.627.473.473 0 0 1-.432.511l-.039.001zM26.395 40.943a.473.473 0 0 1-.471-.441c-.04-.586-.345-1.573-.615-2.445-.151-.489-.294-.95-.388-1.33a.473.473 0 0 1 .918-.229c.089.355.227.804.374 1.279.299.966.608 1.965.654 2.66a.472.472 0 0 1-.44.505h-.032zM17.512 24.135a.473.473 0 0 1-.466-.385c-.39-2.058-.298-3.812.317-6.06a.474.474 0 1 1 .913.25c-.573 2.097-.66 3.729-.3 5.634a.474.474 0 0 1-.464.561zM15.923 16.377a.473.473 0 0 1 0-.946h11.503a.473.473 0 0 1 0 .947zM27.587 27.043H15.762a.473.473 0 0 1 0-.947h11.825a.472.472 0 1 1 0 .947zM19.03 2.62h5.29v-.838a.838.838 0 0 0-.836-.836h-3.618a.837.837 0 0 0-.836.837zm5.763.946h-6.236a.473.473 0 0 1-.474-.473v-1.31c0-.983.8-1.783 1.783-1.783h3.618c.983 0 1.782.8 1.782 1.782v1.31a.473.473 0 0 1-.473.474zM24.784 9.276h-6.219a.473.473 0 0 1 0-.946h6.22a.473.473 0 0 1 0 .946z" fill="#e9d134" opacity="1" data-original="#000000"></path></g></svg>