<svg xmlns="http://www.w3.org/2000/svg" version="1.1" xmlns:xlink="http://www.w3.org/1999/xlink" width="512" height="512" x="0" y="0" viewBox="0 0 43.349 43.349" style="enable-background:new 0 0 512 512" xml:space="preserve" fill-rule="evenodd" class=""><g><path d="M19.2 3.64c-.14 1.706-.294 3.057-.59 4.394h6.13c-.297-1.337-.45-2.689-.59-4.393zm-.83 5.358c-.31 1.116-.737 2.278-1.359 3.678a36.8 36.8 0 0 0-1.05 2.62h11.427a36.846 36.846 0 0 0-1.05-2.62c-.621-1.4-1.05-2.562-1.358-3.678h-6.61zm-2.73 7.257c-1.44 4.58-.838 7.152-.132 9.942h12.333c.706-2.79 1.308-5.362-.131-9.942zm.11 10.905c.488 1.987.92 4.199.654 7.377-.431 5.125-4.19 8.812 2.173 8.812h6.193c6.366 0 2.606-3.686 2.176-8.812-.268-3.178.165-5.39.653-7.377zm2.446-9.305a.48.48 0 0 0-.926-.252c-.585 2.142-.739 3.998-.324 6.192a.48.48 0 0 0 .945-.177c-.387-2.045-.24-3.766.305-5.763zm7.825 23.066a.48.48 0 1 0 .96-.064c-.085-1.262-.736-2.755-1.052-4.026a.48.48 0 1 0-.933.23c.296 1.191.947 2.705 1.025 3.86zm-1.487-6.532a.481.481 0 1 0 .96-.079 22.22 22.22 0 0 1 .24-5.753.481.481 0 1 0-.948-.166 23.32 23.32 0 0 0-.252 5.998zm-.077-20.337a.48.48 0 0 0 .805-.523c-.606-.935-.985-2.217-1.21-3.302a.48.48 0 1 0-.941.196c.252 1.215.667 2.58 1.346 3.629zM18.486 2.678h6.377v-1.34C24.863.603 24.26 0 23.523 0h-3.698c-.736 0-1.338.602-1.338 1.339z" fill="#e9d134" opacity="1" data-original="#000000"></path></g></svg>