<svg xmlns="http://www.w3.org/2000/svg" version="1.1" xmlns:xlink="http://www.w3.org/1999/xlink" width="512" height="512" x="0" y="0" viewBox="0 0 48 48" style="enable-background:new 0 0 512 512" xml:space="preserve" class=""><g><path d="M24.287 1.3a.995.995 0 0 1 .711-.3h2.005c.55 0 .997.447.997.998V3.05a2.988 2.988 0 0 0-1.079 1.758L26 9.436V3.998A2.994 2.994 0 0 0 24.287 1.3zm5.546 19.624 2.973-14.945a.998.998 0 0 0-.784-1.173l-1.966-.391a.998.998 0 0 0-1.173.784l-3.327 16.727a15.635 15.635 0 0 0 4.277-1.002zm4.732-16.328.356-1.788c.014-.072.042-.139.061-.209l-.928-.185a.981.981 0 0 0-1.094.598c.735.3 1.298.881 1.605 1.584zM24 22V3.998A.998.998 0 0 0 23.002 3h-2.005a.998.998 0 0 0-.997.998v17.514c1.261.315 2.613.488 4 .488zm10.45-4.581A2.983 2.983 0 0 1 37 16h1.414l2.391-12.022a.998.998 0 0 0-.784-1.173l-1.966-.391a.998.998 0 0 0-1.173.784l-2.975 14.957a6.48 6.48 0 0 0 .543-.736zm9.63-9.8-1.81-.75L40.453 16H41c.223 0 .442.026.656.073l2.963-7.153a.996.996 0 0 0-.539-1.301zM7 16h.547L5.73 6.869l-1.81.75a.995.995 0 0 0-.539 1.301l2.963 7.153C6.558 16.026 6.777 16 7 16zm3.95 0L9.233 7.369a2.967 2.967 0 0 1 2.033-3.427l-.148-.743a.998.998 0 0 0-1.173-.784l-1.967.39a.998.998 0 0 0-.784 1.173L9.586 16zm2.231.964c.132.142.263.285.368.454.9 1.451 2.505 2.646 4.487 3.453L15.118 6.198a.999.999 0 0 0-1.173-.784l-1.966.391a.998.998 0 0 0-.784 1.173zm3.898-11.156L18 10.436V3.998c0-.483.126-.934.33-1.339l-.136-.682a.997.997 0 0 0-1.171-.783l-1.97.392a.995.995 0 0 0-.782 1.171l.131.661a2.997 2.997 0 0 1 2.677 2.39zm24.68 12.541A.996.996 0 0 0 41 18h-4c-.346 0-.667.179-.85.473C34.068 21.831 29.298 24 24 24s-10.067-2.169-12.15-5.527A1.001 1.001 0 0 0 11 18H7a.998.998 0 0 0-.988 1.152l4 26A1 1 0 0 0 11 46h26a1 1 0 0 0 .988-.848l4-26a.997.997 0 0 0-.229-.803z" fill="#e9d134" opacity="1" data-original="#000000" class=""></path></g></svg>