<svg xmlns="http://www.w3.org/2000/svg" version="1.1" xmlns:xlink="http://www.w3.org/1999/xlink" width="512" height="512" x="0" y="0" viewBox="0 0 80 80" style="enable-background:new 0 0 512 512" xml:space="preserve" class=""><g><path d="M13.925 29.63a.749.749 0 0 0-.741.865l7.32 47.12a.75.75 0 0 0 .741.635h37.91a.75.75 0 0 0 .741-.635l7.32-47.12a.751.751 0 0 0-.741-.865h-3.724l3.9-22.572a.749.749 0 0 0-.415-.8l-5.469-2.62a.75.75 0 0 0-1.063.545L54.747 32.12l.173-28.2a.749.749 0 0 0-.936-.731l-6.269 1.6a.751.751 0 0 0-.565.718l-.093 8.551-2.223.442a.751.751 0 0 0-.6.736v4.627l-2.7.929.051-18.292a.751.751 0 0 0-.934-.73l-6.87 1.73a.75.75 0 0 0-.566.728V19.7l-2.2.207.11-9.278a.75.75 0 0 0-.816-.756l-6.519.57a.75.75 0 0 0-.685.747v13.045l-2.781-16.39a.75.75 0 0 0-.993-.58l-6.06 2.179a.752.752 0 0 0-.484.837l3.424 19.349zm44.588 47.12H21.888l-.978-6.292h38.58zm1.21-7.792H20.677L14.8 31.13h4.673A15.582 15.582 0 0 0 23.2 38a.747.747 0 0 0 .286.3 17.069 17.069 0 0 0 3.89 2.978.745.745 0 0 0 .3.162 25.628 25.628 0 0 0 11.5 2.762h.034c.328.01.654.023.993.024a28.07 28.07 0 0 0 11.05-2.109.758.758 0 0 0 .1-.046 18.854 18.854 0 0 0 2.824-1.551.749.749 0 0 0 .3-.186.736.736 0 0 0 .243-.19 15.813 15.813 0 0 0 6.193-9.019H65.6zM29.731 21.536l5.145-.487-1.1 21.028a21 21 0 0 1-5.122-1.761zm11.335.995 3.663-1.26V42.39a33.4 33.4 0 0 1-4.526.341c-.087 0-.168-.005-.254-.006v-19.81zM61.007 5.413l4.067 1.948-3.845 22.269h-.92a.751.751 0 0 0-.746.663 13.483 13.483 0 0 1-4.3 7.5zm-12.363.681 4.77-1.217-.211 34.5a17.2 17.2 0 0 1-1.433.835V14.03a.751.751 0 0 0-.9-.736l-2.313.46zm1.626 8.849v25.963a22.423 22.423 0 0 1-4.04 1.219V20.22a.749.749 0 0 0-.314-.61.733.733 0 0 0-.186-.075v-3.689zM34.715 4.814l5.367-1.351-.055 17.837-1.071.368a.752.752 0 0 0-.506.71v20.3a31.389 31.389 0 0 1-3.186-.327l1.155-22.093a.751.751 0 0 0-.819-.785l-.885.083zm-5.1 6.625-.1 8.611-.569.054a.749.749 0 0 0-.678.7L27.2 39.487a15.208 15.208 0 0 1-2.592-2.076V11.877zm-15.246-.8L19 8.979l4.114 24.2v2.46a12.589 12.589 0 0 1-2.274-5.351.753.753 0 0 0-.745-.662h-2.361z" fill="#e9d134" opacity="1" data-original="#000000" class=""></path></g></svg>