<svg id="Layer_1" enable-background="new 0 0 52 52" height="512" viewBox="0 0 52 52" width="512" xmlns="http://www.w3.org/2000/svg"><g id="_x32_37" fill="rgb(0,0,0)"><path d="m32.1875305 44.0270996c.496582-1.2775879.6916504-2.675293.8051758-4.0615234.119873-1.3840332.1855469-2.7890625.5495605-4.121582.3220215-1.3515625 1.0810547-2.5117188 2.0556641-3.6889648.9526367-1.1760254 2.1057129-2.348877 2.9433594-3.8984375.8171387-1.5568848 1.2092285-3.3532715 1.151123-5.1381836-.1162109-3.5722656-1.5881348-7.1342773-4.1396484-9.9064941-.6394043-.6940918-1.3686523-1.2995605-2.1394043-1.8410645-.4086914-.2329102-.8022461-.5136719-1.2226563-.699707l-1.2529297-.5705566c-1.7104492-.6533203-3.5012207-.9936523-5.2663574-1.0388184-1.7666016-.059082-3.5073242.2138672-5.1184082.748291-1.6057129.5375977-3.1276855 1.2722168-4.4067383 2.2832031-1.2749023 1.0031738-2.3984375 2.154541-3.2209473 3.4631348-.8137207 1.307373-1.4301758 2.6826172-1.7717285 4.0913086-.7392578 2.8361816-.1469727 5.6782227.9272461 7.8291016 1.0666504 2.1875 2.4716797 3.8588867 3.7131348 5.2587891 1.2712402 1.3146973 1.8276367 2.777832 2.1848145 4.0183105.3447266 1.2414551.4814453 2.2502441.5952148 2.9287109.1071777.6811523.1745605 1.0407715.2253418 1.0373535.0432129-.0029297.0688477-.3186035.0622559-.8937988.6855469.5336914 3.2583008 1.5437012 6.5439453 1.6171875 2.9741211.0874023 5.4086914-.6223145 6.371582-1.1264648-.0400391.5175781-.090332 1.0249023-.168457 1.5109863-.3742676-.154541-1.2341309.0002441-2.2145996.1708984-1.1755371.2211914-2.1921387.4013672-2.2478027.798584-.0639648.3813477 1.0734863.8671875 2.5024414.6054688.8117676-.1455078 1.4411621-.4833984 1.8066406-.8098145-.0820313.3581543-.1760254.7084961-.2971191 1.0427246-.0571289.151123-.1271973.2895508-.1914063.4338379-.4035645.1833496-.8937988.4645996-1.3806152.6994629-.4831543.21875-.940918.3330078-1.2963867.3935547-.3544922.067627-.6503906.0759277-.7600098.2460938-.1062012.1530762.0524902.5100098.5734863.7456055.2878418.1340332.6757813.1882324 1.0915527.1574707-1.7893066 1.1987305-4.0075684 1.1936035-5.685791.7431641-.8547363-.2324219-1.6296387-.5732422-2.236084-1.0014648-.6159668-.4262695-1.0454102-.973877-1.3544922-1.5112305-.6052246-1.0966797-.7475586-2.1247559-.8842773-2.7890625-.119873-.6760254-.1828613-1.0371094-.2348633-1.0332031-.0461426.003418-.0795898.3681641-.0510254 1.0656738.0505371.6882324.0905762 1.753418.6772461 3.0126953.3010254.6169434.760498 1.276123 1.4367676 1.7976074.4526367.354248.9926758.6335449 1.5668945.8806152-.0319824.2558594-.005127.5991211.1599121 1.0119629.342041.8759766 1.4462891 1.9472656 3.0383301 1.9489746 1.5539551-.032959 2.6420898-1.0205078 3.0739746-1.7932129.2670898-.4643555.3486328-.8425293.3452148-1.1018066.2468262-.1169434.4914551-.244873.7275391-.4025879 1.1071778-.6735842 1.9213868-1.8632815 2.4133301-3.1127932zm-9.5473633-4.1887207c.1289768-1.1173019.2407188-2.7161522.2675781-4.2915039.0319824-1.1455078-.0083008-2.4580078-.1835938-3.8850098-.0717773-.7128906-.1472168-1.4597168-.2255859-2.237793-.0185547-.2126465-.0146484-.4375-.0036621-.6687012.7458858-.354311 1.1382256-.6008854 1.5820313-.8435059.2275391-.1240234.5305176-.3071289.7587891-.4787598.9570313-.7104492 1.6669922-1.4731445 2.4638672-1.7526855.7675781-.2944336 1.7478027-.1818848 2.3308105.2597656.1296387.0939941.2338867.2116699.3283691.3354492-.2915039-.1188965-.5996094-.1660156-.8544922-.1450195-.5983887-.045166-1.2636719.2961426-1.6308594.7756348-.3886719.4694824-.5993652 1.1721191-.4155273 1.8400879.1757813.6335449.6269531 1.2116699 1.3510742 1.4436035.4606934.1315918.8879395.0622559 1.2612305-.079834-.1303711.4846191-.2780762.9602051-.442627 1.4121094-.2353516.645752-.5246582 1.2927246-.7072754 1.9440918-.4783897 1.6259117-.5573387 3.2223129-.3225098 4.842041.1105957.7102051.2373047 1.2595215.3522949 1.6608887-2.014408.1088601-3.8041743.0801965-5.909912-.1308593zm-1.321289-12.1135254c-.8806152.3569336-1.8088379.4436035-2.5913086.201416-.1804199-.0595703-.3293457-.1381836-.4396973-.2316895-.1271973-.1210938-.2473145-.2441406-.3242188-.3925781-.5137444-.918396.1187649-2.3197765 1.1101074-2.7189941.6616211-.2875977 1.3029785-.111084 1.7590332.4228516.4665527.534668.6171875 1.2456055.6037598 2.0283203-.0012207.2116699-.0117188.4287109-.0244141.6489258-.0310058.0126953-.0622558.029541-.0932616.041748zm7.4606933 1.2033692c-.1916504-.0446777-.4123535-.2734375-.480957-.5209961-.0722656-.2270508-.0114746-.4980469.1584473-.7219238.1809082-.220459.3820801-.3522949.6591797-.3344727.3544922-.0275879.5231934.072998.6486816.2089844.1235352.1262207.1816406.4143066.190918.71875-.3481446.435791-.9228516.7583007-1.1762696.6496582zm.0891114 11.0224609c-.0344238-.4135742-.0837402-.9775391-.1176758-1.6928711-.0581226-1.5438728.0940533-2.9914856.6328125-4.5117188.1967773-.5825195.4958496-1.1687012.7827148-1.854248.3704891-.8922024.7117386-1.8506374.8706055-2.8083496.1760254-.2260742.3278809-.4760742.4355469-.7507324.5095215-1.1923828.0776367-2.7226563-1.0019531-3.5100098-1.0822754-.7885742-2.4360352-.9013672-3.6586914-.4755859-1.2316895.4616699-2.0141602 1.3671875-2.8137207 1.9304199-.3460102.2538757-.508997.3238144-1.3225098.7856445-.0197754.0109863-.0388184.0200195-.0583496.0307617.0004883-.0109863.001709-.0212402.0021973-.0322266.050293-.8806152-.1079102-2.0068359-.8242188-2.8608398-.3469238-.4248047-.8376465-.7963867-1.4350586-.9589844-.5986328-.168457-1.2370605-.0966797-1.7851563.1242676-1.1176758.4477539-1.9152832 1.5026855-2.1193848 2.7084961-.1037598.6057129-.0300293 1.2939453.2961426 1.8920898.1574707.3017578.3852539.5576172.6303711.782959.2770996.2397461.5935059.3974609.8999023.501709 1.0341797.3374023 2.1208496.2451172 3.1003418-.060791.0061035.1137695.0065918.2263184.0200195.3410645.1101074.7719727.2155762 1.5129395.3164063 2.2199707.2382813 1.4064941.347168 2.6796875.3911133 3.8083496.0402832 1.1311035.0751953 2.1052246.1037598 2.9016113.0146484.5285645.0305176.9714355.0488281 1.3383789-1.7038574-.1838379-2.9643555-.4018555-3.4099121-.3232422-.0625324-1.7108498-.3293419-3.4236221-1.0075684-4.9943848-.3205566-.7583008-.8337402-1.5532227-1.4450684-2.2658691-1.1687012-1.4277344-2.4675293-3.0964355-3.4052734-5.1669922-.9431152-2.0476074-1.4030762-4.5690918-.6936035-7.1135254.3325195-1.2697754.9208984-2.5192871 1.6730957-3.690918.7617188-1.1757813 1.7963867-2.2023926 2.9616699-3.1008301 1.1694336-.9057617 2.5646973-1.557373 4.03125-2.0358887 1.4716797-.4755859 3.0615234-.7138672 4.6694336-.6489258 3.1804199.1210938 6.611084 1.1967773 8.8764648 3.7299805 2.2998047 2.4865723 3.6691895 5.7866211 3.7814941 8.9631348.0615234 1.5910645-.2785645 3.1367188-.9570313 4.4645996-1.0307808 1.9690399-2.9504929 3.5853081-4.1320801 5.6806641-.4064941.7028809-.6918945 1.4782715-.8774414 2.2285156-.3781738 1.4873047-.4187012 2.9282227-.5100098 4.2653809-.5397947-.0300292-1.5927732.0776368-2.9494626.1589356zm-.9567871 8.0651855c-.5205078.4675293-1.3605957.9829102-2.300293.9946289-.9094238.010498-1.732666-.536377-2.1499023-1.0285645-.0439453-.0493164-.0725098-.0952148-.1103516-.1437988 1.58325.4735374 3.1230583.5150299 4.6508789.09375-.0319824.0288087-.0566406.0546876-.090332.0839844z"/><path d="m7.4179997 33.517334c-1.0839844.7714844-1.8713379 1.5778809-1.6777344 1.9245605.1896973.3417969 1.348877.0600586 2.5034175-.760498 1.15625-.8181152 1.8051758-1.8195801 1.5449219-2.1115723-.2631836-.2971191-1.2839355.1796875-2.370605.9475098z"/><path d="m5.9526677 23.612793c1.3205566.1408691 2.4404292-.0612793 2.5012202-.4506836s-.9912105-.8232422-2.349853-.9682617c-1.3583984-.1450195-2.4782717.0571289-2.5009768.4506836-.0227051.3933105 1.029053.8273925 2.3496096.9682617z"/><path d="m6.8882146 14.706543c.7741699.5458984 1.5524898.8452148 1.8261714.5578613.2712402-.2819824-.1335449-1.1088867-1.0009761-1.7219238-.8657227-.6152344-1.7790527-.723877-1.9560547-.375-.180664.3532715.359375.9892578 1.1308594 1.5390625z"/><path d="m16.3930969 8.1962891c.3220215-.2268066.0107422-1.223877-.6955566-2.2268066s-1.5400391-1.6320801-1.8623047-1.4052734c-.3220215.2268066-.0107422 1.223877.6955566 2.2268066s1.5400391 1.63208 1.8623047 1.4052734z"/><path d="m22.8132629 1.5625c-.394043 0-.7133789.026123-.7133789.0581055 0 .0322266.3193359.0581055.7133789.0581055s.713623-.0258789.713623-.0581055c.0000001-.0319825-.31958-.0581055-.713623-.0581055z"/><path d="m25.6863098 4.1367188c.0388184-1.3012695-.1123047-2.3962402-.5048828-2.458252-.3857422-.0622559-.8786621 1.0119629-.9213867 2.4128418-.0463867 1.4008789.3774414 2.5043945.7661133 2.4665527.3957519-.0368652.6162109-1.119873.6601562-2.4211425z"/><path d="m36.6108704 7.2341309c1.1218262-1.1621094 1.703125-2.3791504 1.3994141-2.6259766-.307373-.2509766-1.3505859.5209961-2.4272461 1.6359863-1.0739746 1.1174316-1.8061523 2.1889648-1.5439453 2.4865723.2583007.2941894 1.4521484-.3322754 2.5717773-1.496582z"/><path d="m40.6872864 15.6970215c.1616211.359375 1.6411133.0446777 3.3049316-.7028809 1.6635742-.7473145 2.8813477-1.6447754 2.7197266-2.0041504-.161377-.3596191-1.6411133-.0449219-3.3046875.7026367s-2.8813477 1.6447754-2.7199707 2.0043946z"/><path d="m43.1836243 25.1594238c-.0893555.3781738 1.0522461.9648438 2.578125 1.0075684 1.5253906.0476074 2.6999512-.470459 2.6328125-.8532715-.0644531-.394043-1.2194824-.5280762-2.5908203-.5732422-1.3713379-.0358887-2.5322266.0292969-2.6201172.4189453z"/><path d="m41.7800598 34.0583496c-.2624512.2902832.2800293 1.2077637 1.296875 1.9399414 1.0151367.7346191 2.0563965.9609375 2.2495117.6203613.1965332-.3444824-.46875-1.0922852-1.4143066-1.7773438-.9477539-.6816405-1.8666992-1.0778808-2.1320801-.7829589z"/><path d="m35.0762024 20.7036133c.6162109 1.2629395.8662109 2.1394043 1.0769043 2.107666.1774902-.0192871.2866211-.9816895-.1342773-2.4677734-.4074707-1.4699707-1.4506836-3.4475098-3.296875-4.9831543-1.8461914-1.5354004-3.9804688-2.2011719-5.5002441-2.3339844-1.5378418-.1433105-2.4643555.1391602-2.4509277.3173828.0073242.2128906.9145508.2990723 2.2685547.6750488 1.3493652.3664551 3.1589355 1.0996094 4.7700195 2.4387207 1.6101073 1.3400879 2.6606444 2.9863282 3.2668456 4.2460938z"/></g></svg>