<?xml version="1.0" encoding="UTF-8"?>
<svg id="Layer_1" xmlns="http://www.w3.org/2000/svg" viewBox="0 0 378.25 1360.9">
  <defs>
    <style>
      .cls-1 {
        fill: #e6cc33;
      }

      .cls-2 {
        fill: #b64a12;
      }

      .cls-3 {
        fill: #be5c4a;
      }

      .cls-4 {
        fill: #cf8b37;
      }

      .cls-5 {
        fill: #a62007;
      }
    </style>
  </defs>
  <path class="cls-5" d="M235.57,2.08c1.74-.5,3.86-.09,4.99-2.08h33.89c1.28,2.73-1.15,3.06-2.59,3.64-6.52,2.63-11.73,7.15-17.09,11.48-1.53,1.24-2.93,2.65-3.59,4.6-.15.43-.39.8-.72,1.11-3.84.07-6.77,1.85-9.72,4.3-24.02,19.93-45.5,42.42-64.98,66.7-20.69,25.79-37.07,54.27-48.72,85.36-11.19,29.87-16.2,60.99-18.05,92.67-4.25,72.71,11.69,141.65,38.37,208.73,17.18,43.18,40.01,83.13,65.78,121.6,15.99,23.88,31.31,48.21,43.48,74.37,24.93,53.57,27.82,108.48,10.41,164.75-9.9,32.01-24.01,62.24-38.18,92.46-14.39,30.68-28.61,61.44-38.87,93.83-8.44,26.65-14.1,53.87-12.13,81.98,3.26,46.54,20.16,87.34,52.34,121.52,29.07,30.88,64.58,49.4,106.18,56.38,12.47,2.1,25.08,2.91,37.72,2.17,3.31-.19,4.32.7,4.1,3.99-.31,4.65-.18,9.32-.24,13.98-4.15,2.37-8.79,2.64-13.38,3.1-9.54-2.51-19.44-1.81-29.11-3.44-40.27-6.78-76.29-22.84-107.15-49.71-16.66-14.5-30.13-31.9-41.48-50.87-12.35-20.63-20.82-42.74-25.04-66.48-4.06-22.8-4.62-45.69-1.78-68.63,4.35-35.09,16.31-67.9,30.39-100.03,14.23-32.48,30.61-63.98,43.49-97.06,10.35-26.58,19.37-53.52,23.52-81.93,4.35-29.74.67-58.41-10.18-86.29-10.8-27.77-26.16-53.12-41.57-78.43-17.23-28.29-35.66-55.84-51.63-84.89-17.88-32.51-31.53-66.81-42.3-102.3-8.97-29.55-15.46-59.63-19.51-90.25-3.35-25.32-4.6-50.78-3.32-76.24,1.92-38.51,9.48-75.96,23.76-111.89,7.91-19.88,18.55-38.29,29.88-56.4,17.19-27.47,38.8-51.07,62.09-73.3,1.88-1.79,4.22-3.36,4.54-6.33.14-1.63,1.38-2.11,2.67-2.51,9.38-2.93,15.06-10.93,22.51-16.51,1.02-.76.88-2.08,1.22-3.17Z"/>
  <path class="cls-1" d="M250.43,20.07c-.91-3.17,1.91-4.3,3.54-5.71,5.83-5.05,11.71-10.15,19.32-12.47.96-.29,1.21-1,1.17-1.89h1c.48,2.63,2.58,1.59,3.99,1.61,32.34.45,63.88,6.08,95.05,14.35,2.68.71,3.86,1.75,3.71,4.69-.25,4.96-.07,9.94-.07,15.29-14.89-3.65-29.29-7.37-43.95-10.03-19.43-3.52-38.9-6.09-58.71-5.12-4.45.22-8.93-.14-13.4-.24,1.93-2.16,4.43-.69,6.65-.99,2-.27,4.07-.02,6.09-.25-4.55.76-9.2-.41-13.74.47-1.9.4-3.89-.05-5.76.62-1.63-.03-3.29.44-4.87-.33Z"/>
  <path class="cls-1" d="M235.57,2.08c1.45,1.15,2.8,1.97.37,3.86-5.74,4.47-11.19,9.3-16.79,13.94-2.76,2.29-6.23,2.9-9.55,3.82-.6,1.26-1.79,1.35-2.94,1.5-29.59,3.94-57.74,12.46-84.17,26.49-13.43,7.13-25.56,16.04-36.99,26.09-17,14.94-30.06,32.88-40.46,52.76-10.26,19.59-16.77,40.61-21.05,62.28-4.6,23.26-6.82,46.83-6.26,70.5.65,27.13,3.39,54.13,8.2,80.89,5.82,32.37,14.05,64.12,24.39,95.3,9.71,29.28,21.35,57.82,35.24,85.36,17.28,34.27,37.3,66.92,60.8,97.26,16.3,21.04,33.99,40.98,50.57,61.8,15.49,19.46,29.29,40.09,37.93,63.67,8.15,22.25,10.41,45.3,8.47,68.86-3.5,42.43-21.67,79.26-43.29,114.82-17.87,29.39-39.65,55.91-60.38,83.21-18.31,24.13-36.68,48.25-51.16,75.02-14.39,26.6-25.36,54.48-27.76,84.88-3.09,39.03,8.1,73.85,33.79,103.51,30.61,35.34,69.71,55.36,115.54,62.24,37.83,5.68,74.4-.35,109.98-13.62,11.53-4.3,22.73-9.37,33.73-14.89,3.39-1.7,6.77-3.61,10.72-3.78,4.51-.58,8.82-2.46,13.47-2.2.81,14.66.73,14.51-11.59,21.33-31.93,17.65-66.03,28.77-102.21,32.51-62.18,6.44-118.4-8.56-165.97-50.36-30.32-26.65-49.49-60.25-55.66-100.49-4.33-28.2-.02-55.83,9.07-82.57,12.83-37.73,33.96-70.91,57.39-102.82,21.07-28.69,44.19-55.82,64.22-85.29,16.88-24.83,31.2-50.94,41.65-79.26,20.88-56.54,10.59-107.51-26.02-154.12-16.44-20.93-34.69-40.35-50.89-61.49-55.08-71.87-94.92-151.26-117.66-239.15C10.56,366.34,3.13,328.41.92,289.53c-2.39-41.94-.51-83.48,10.36-124.28,9.35-35.1,26.72-65.77,51.22-92.44,23.79-25.9,53.68-41.99,86.17-53.82,26.66-9.71,53.95-16.32,82.56-16.17,1.45,0,2.89-.49,4.34-.75Z"/>
  <path class="cls-2" d="M260.67,19.19h14.87c0,.22,0,.43,0,.65-4.49.24-8.99.48-13.47.71-.5-.05-1-.11-1.5-.16-.26-.29-.33-.57-.21-.83.11-.25.22-.38.32-.38Z"/>
  <path class="cls-4" d="M260.67,19.19c-.03.4-.07.8-.11,1.2-1.62.71-3.3.42-4.97.26-.4-.1-.54-.25-.45-.43.11-.2.22-.3.34-.3,1.54-1.56,3.42-.77,5.18-.74Z"/>
  <path class="cls-3" d="M255.48,19.93c0,.25.04.49.11.73-1.71.06-3.42.11-5.13.17,0-.25-.02-.5-.04-.75,1.68-.05,3.37-.1,5.06-.14Z"/>
</svg>