<svg xmlns="http://www.w3.org/2000/svg" version="1.1" xmlns:xlink="http://www.w3.org/1999/xlink" width="512" height="512" x="0" y="0" viewBox="0 0 512 512" style="enable-background:new 0 0 512 512" xml:space="preserve"><g><path d="M303.801 127.598C233 127.598 175.398 185.199 175.398 256S233 384.402 303.801 384.402 432.203 326.801 432.203 256s-57.601-128.402-128.402-128.402zM364.349 271h-75.548V165.709h30V241h45.548z" fill="#ad2007" opacity="1" data-original="#000000"></path><path d="M304.374 47.802c-45.679-.123-87.937 14.475-122.319 39.302H68.524c-17.899 0-32.408 14.51-32.408 32.408 0 17.899 14.51 32.408 32.408 32.408h54.925a206.892 206.892 0 0 0-22.923 58.924H32.408C14.51 210.845 0 225.354 0 243.253s14.51 32.408 32.408 32.408h64.124a206.888 206.888 0 0 0 14.428 58.924H87.812c-17.899 0-32.408 14.51-32.408 32.408 0 17.899 14.51 32.408 32.408 32.408h65.054c37.932 39.912 91.526 64.797 150.935 64.797C418.786 464.199 512 370.986 512 256.001c0-115.033-92.594-207.889-207.626-208.199zm-.573 366.6c-87.343 0-158.402-71.059-158.402-158.402S216.458 97.598 303.801 97.598 462.203 168.657 462.203 256s-71.059 158.402-158.402 158.402z" fill="#ad2007" opacity="1" data-original="#000000"></path></g></svg>