<svg xmlns="http://www.w3.org/2000/svg" version="1.1" xmlns:xlink="http://www.w3.org/1999/xlink" width="512" height="512" x="0" y="0" viewBox="0 0 512 512" style="enable-background:new 0 0 512 512" xml:space="preserve" class=""><g><path d="M500.675 219.779a62.696 62.696 0 0 0 6.967-12.796c9.151-22.793 3.703-46.851-14.572-64.355-29.708-28.456-69.788-44.127-112.857-44.127-22.149 0-43.503 4.142-63.529 12.316-20.027-8.175-41.382-12.316-63.53-12.316-21.061 0-41.459 3.764-60.683 11.191-19.225-7.428-39.623-11.191-60.684-11.191-43.069 0-83.15 15.671-112.858 44.127C.655 160.133-4.793 184.19 4.358 206.983a62.724 62.724 0 0 0 6.962 12.789c-6.285 6.295-9.576 13.438-9.576 20.923 0 6.939 2.821 13.511 8.137 19.393-3.453 3.854-5.125 8.889-4.597 13.954.567 5.436 3.593 10.347 8.289 13.466l.105.07c5.391 3.628 12.548 6.241 20.142 7.357 7.968 1.181 16.215.798 23.803-1.094 5.526-1.343 9.854-1.65 12.868-.913 2.458.599 4.268 2.017 6.029 4.701 1.783 2.755 4.099 5.361 6.887 7.747.167.146.346.293.522.438l.812.745c.547.5 1.103.983 1.681 1.461 1.197.984 2.4 1.874 3.539 2.619a40.634 40.634 0 0 0 15.962 6.27c11.631 1.888 23.444-1.51 32.412-9.309 1.933-1.68 4.22-2.436 6.627-2.17 2.469.271 4.666 1.561 6.347 3.72 7.356 9.471 18.206 15.355 29.763 16.145 11.575.79 23.03-3.585 31.41-12.021 1.845-1.854 4.087-2.782 6.514-2.714 2.437.079 4.659 1.178 6.424 3.175 7.892 8.932 19.05 14.053 30.612 14.052h.005c11.56 0 22.716-5.121 30.607-14.051 1.766-1.998 3.988-3.097 6.427-3.176 2.42-.067 4.668.858 6.508 2.711 8.385 8.439 19.854 12.822 31.41 12.024 11.56-.789 22.409-6.673 29.76-16.136 1.689-2.168 3.886-3.457 6.343-3.728 2.403-.261 4.702.487 6.634 2.165 8.972 7.802 20.784 11.197 32.438 9.309a40.567 40.567 0 0 0 15.904-6.241 40.781 40.781 0 0 0 3.586-2.652c.569-.47 1.129-.956 1.737-1.514l.753-.689c.175-.144.35-.289.515-.433 2.787-2.385 5.104-4.992 6.858-7.706 1.789-2.726 3.6-4.144 6.067-4.744 3.006-.736 7.332-.429 12.815.904 7.633 1.902 15.881 2.286 23.84 1.105 4.625-.679 9.079-1.919 13.069-3.593 2.542 3.089 3.95 6.958 3.95 11.086v11.225c0 9.649-7.848 17.5-17.495 17.5H34.235c-9.647 0-17.495-7.851-17.495-17.5v-6.513a7.498 7.498 0 1 0-14.996 0v6.513c0 17.921 14.575 32.5 32.49 32.5h427.218c3.71 10.208 2.444 21.75-3.643 31.586-8.045 13-22.815 20.761-39.51 20.761h-324.6c-26.222 0-41.521-17.518-44.639-33.794-.78-4.068-4.71-6.728-8.776-5.954a7.501 7.501 0 0 0-5.952 8.778c2.395 12.499 9.379 23.986 19.665 32.347 10.966 8.912 24.696 13.623 39.702 13.623H418.3c21.924 0 41.46-10.417 52.26-27.865 7.546-12.194 9.765-26.341 6.536-39.481h.669c17.915 0 32.49-14.579 32.49-32.5v-11.225c0-7.216-2.448-14.186-6.767-19.816a18.234 18.234 0 0 0 3.226-8.579c.528-5.069-1.129-10.111-4.564-13.982 5.295-5.873 8.105-12.432 8.105-19.357 0-7.472-3.301-14.62-9.58-20.916zM36.01 280.097c-5.432-.799-10.389-2.562-13.986-4.981l-.144-.096c-.981-.652-1.579-1.552-1.68-2.533-.066-.633.049-1.585.952-2.504l.109-.11c.111-.112.21-.231.312-.349a77.337 77.337 0 0 0 7.296 3.931c5.838 2.752 12.37 5.042 19.396 6.836-4.045.45-8.246.399-12.255-.194zm-19.27-39.402c0-3.707 2.09-7.048 4.63-9.745 12.386 10.896 29.041 17.245 47.166 17.245h86.339c-8.088 11.361-33.657 21.734-67.709 21.734-41.503.001-70.426-15.407-70.426-29.234zm406.216 48.787c-1.014 1.568-2.343 3.046-4.065 4.515l-.086.075-.174.144c-.283.233-.559.467-.813.703l-.613.575a26.93 26.93 0 0 1-1.089.945c-.773.638-1.532 1.2-2.291 1.697a25.714 25.714 0 0 1-10.076 3.966c-7.33 1.187-14.498-.881-20.185-5.828-5.092-4.423-11.513-6.461-18.097-5.753-6.494.715-12.369 4.061-16.549 9.428-4.808 6.188-11.537 9.876-18.95 10.382-7.333.501-14.356-2.205-19.751-7.636-4.785-4.813-11.042-7.343-17.632-7.127-6.571.215-12.669 3.139-17.172 8.233-5.121 5.795-12 8.985-19.374 8.985h-.003c-7.374.001-14.255-3.19-19.377-8.985-4.502-5.095-10.599-8.019-17.169-8.233-6.591-.229-12.85 2.315-17.638 7.13-5.392 5.427-12.398 8.142-19.751 7.633-7.411-.506-14.139-4.193-18.952-10.391-4.174-5.359-10.049-8.704-16.555-9.42-6.564-.712-12.992 1.33-18.09 5.758-5.685 4.943-12.849 7.014-20.161 5.828a25.803 25.803 0 0 1-10.133-3.994 26.249 26.249 0 0 1-2.247-1.666 29.439 29.439 0 0 1-1.032-.893l-.711-.667c-.228-.212-.5-.44-.778-.669l-.172-.142a7.083 7.083 0 0 0-.089-.078c-1.722-1.471-3.053-2.948-4.094-4.558a29.59 29.59 0 0 0-3.654-4.531c.578.006 1.153.02 1.733.02 21.896 0 42.599-4.075 58.296-11.476 14.021-6.609 22.977-15.399 25.985-25.259h.271c3.008 9.86 11.964 18.65 25.985 25.259 15.697 7.4 36.401 11.476 58.297 11.476s42.599-4.075 58.297-11.476c14.021-6.609 22.977-15.399 25.985-25.259h.271c3.008 9.86 11.964 18.65 25.985 25.259 15.696 7.4 36.4 11.476 58.296 11.476.598 0 1.191-.015 1.787-.021a30.589 30.589 0 0 0-3.665 4.575zM188.29 248.195h135.42c-8.088 11.361-33.657 21.734-67.71 21.734s-59.622-10.373-67.71-21.734zM491.8 272.48c-.106 1.02-.724 1.952-1.777 2.651-.377.254-.777.496-1.184.735l-.052.032c-3.441 2.01-7.894 3.488-12.734 4.2-4.015.595-8.226.644-12.294.186 7.017-1.793 13.541-4.081 19.372-6.83a76.918 76.918 0 0 0 7.343-3.959c.104.12.204.241.316.356.96.977 1.079 1.969 1.01 2.629zm-66.966-2.55c-34.052 0-59.621-10.373-67.709-21.734h86.339c18.125 0 34.779-6.348 47.165-17.244 2.512 2.67 4.631 6.022 4.631 9.744 0 13.826-28.923 29.234-70.426 29.234zm68.894-68.534c-7.755 19.318-27.485 31.802-50.262 31.802H68.536c-22.777 0-42.507-12.483-50.262-31.802-6.785-16.903-2.663-34.821 11.028-47.934 26.903-25.77 63.299-39.961 102.486-39.961 14 0 27.669 1.825 40.829 5.43-11.842 6.52-22.664 14.449-32.319 23.697-6.124 5.866-10.851 12.521-14.051 19.777a7.501 7.501 0 0 0 6.857 10.529 7.5 7.5 0 0 0 6.864-4.476c2.403-5.45 6.004-10.495 10.703-14.996 12.733-12.196 27.744-21.869 44.615-28.748l.017-.008c18.242-7.436 37.706-11.205 57.853-11.205 15.365 0 30.298 2.193 44.59 6.513-11.098 6.317-21.274 13.884-30.387 22.614-4.442 4.254-8.488 10.636-12.026 18.97a7.5 7.5 0 0 0 6.898 10.434 7.5 7.5 0 0 0 6.904-4.57c2.699-6.359 5.671-11.2 8.594-13.999 12.03-11.524 26.134-20.818 41.919-27.622l.003-.001c18.995-8.187 39.37-12.337 60.563-12.337 39.186 0 75.583 14.191 102.486 39.961 13.69 13.113 17.813 31.031 11.028 47.932z" fill="#e9d134" opacity="1" data-original="#000000"></path></g></svg>