<?xml version="1.0" encoding="UTF-8"?>
<svg id="Layer_1" xmlns="http://www.w3.org/2000/svg" viewBox="0 0 379.12 1360.89">
  <defs>
    <style>
      .cls-1 {
        fill: #e6cc33;
      }

      .cls-2 {
        fill: #b64a12;
      }

      .cls-3 {
        fill: #be5c4a;
      }

      .cls-4 {
        fill: #cf8b37;
      }

      .cls-5 {
        fill: #a62007;
      }
    </style>
  </defs>
  <path class="cls-1" d="M0,40.09c8.99-4.64,17.85-9.56,27-13.86C65.87,7.95,106.77-1.68,149.78.24c59.47,2.65,110.4,24.88,149.32,70.71,27.41,32.28,41.38,70,38.53,112.9-2.23,33.62-13.32,64.52-29.22,94.06-19.78,36.73-45.44,69.26-70.9,101.97-19.65,25.25-38.82,50.79-54.18,78.98-13.87,25.45-24.65,52-28.97,80.83-4.08,27.26.1,53.27,11.82,78.28,10.95,23.38,26.79,43.22,43.63,62.39,38.41,43.73,71.45,91.13,98.1,142.94,26.56,51.64,45.23,106.04,57.91,162.64,8.62,38.47,13.45,77.33,13.32,116.77-.11,35.96-3.99,71.38-15.25,105.75-9.81,29.92-25.88,56.13-47.08,79.21-28.54,31.07-65.22,48.14-104.72,60.15-20.78,6.31-41.96,10.32-63.78,10.26-2.11,0-4.21.51-6.32.78-2.38-1.3-1.86-2.97-.29-4.36,6.07-5.36,12.17-10.7,18.71-15.5,2.56-1.88,5.87-2.14,8.89-3.01,31.97-3.72,62.28-12.91,90.38-28.59,30.03-16.77,53.64-40.24,70.59-70.31,15.88-28.17,24.11-58.69,28.27-90.52,1.69-12.89,2.73-25.86,2.81-38.8.19-30.52-2.89-60.82-8.2-90.88-5.72-32.39-13.97-64.14-24.4-95.3-19.85-59.31-47.5-114.7-83.77-165.75-16.82-23.67-36.01-45.4-54.39-67.78-18.79-22.87-36.35-46.53-46.81-74.56-8.35-22.36-10.53-45.59-8.55-69.33,3.53-42.26,21.72-78.9,43.24-114.35,18.83-31,42.07-58.74,63.84-87.58,17.36-23,34.76-46.02,48.49-71.48,14.27-26.47,25.15-54.25,27.47-84.48,3-39.02-8.26-73.82-34.07-103.44-30.75-35.29-69.95-55.28-115.91-62.09-37.93-5.62-74.55.51-110.26,13.72-15.18,5.62-29.46,13.21-44.27,19.65-4.52,1.08-8.92,3.91-13.73.98v-15Z"/>
  <path class="cls-5" d="M0,55.09c4.76.7,9.09-1.52,13.68-2.01,33.45,1.04,65.19,8.77,94.99,24.21,19.68,10.2,37.65,22.7,52.8,38.98,30.77,33.05,51.1,71.18,56.98,116.52,4.81,37.07.35,73.05-11.01,108.42-8.32,25.92-19.16,50.78-30.78,75.35-16.52,34.94-33,69.91-44.61,106.91-7.61,24.26-13.13,48.87-12.8,74.52.33,25.13,7.03,48.68,17.35,71.33,14.13,31.02,32.39,59.71,50.5,88.46,19.37,30.74,38.84,61.42,53.88,94.59,15.67,34.54,27.49,70.42,36.13,107.36,5.7,24.37,9.79,49.02,11.77,73.95,1.63,20.57,1.91,41.19.48,61.85-1.93,27.9-6.81,55.16-15.05,81.86-8.76,28.4-22.14,54.49-38.02,79.54-17.83,28.12-40.18,52.19-64.04,75.07-1.46,1.4-3.79,2.44-3.28,5.18-9.54,1.37-14.96,9.14-22.08,14.26-1.6,1.15-2.97,2.64-4.59,3.75-1.72,1.18-1.41,2.32-.34,3.64-1.37.63-3.23.29-4.04,2.04h-33.98c-1.25-3.04,1.52-3.2,3.03-3.83,6.51-2.7,11.69-7.28,17.06-11.62,1.41-1.14,2.64-2.48,3.23-4.27.15-.43.39-.8.72-1.11,3.85-.07,6.78-1.85,9.74-4.3,24.08-19.93,45.61-42.42,65.14-66.7,20.74-25.79,37.16-54.28,48.84-85.36,11.22-29.87,16.23-60.99,18.1-92.68,4.28-72.54-11.65-141.36-38.27-208.29-17.24-43.35-40.2-83.46-66.16-122.05-16.05-23.87-31.39-48.21-43.59-74.37-24.99-53.58-27.88-108.48-10.41-164.76,9.93-32.01,24.07-62.24,38.28-92.46,14.42-30.68,28.69-61.44,38.97-93.83,8.46-26.65,14.12-53.87,12.14-81.98-3.28-46.54-20.25-87.34-52.51-121.51-29.15-30.88-64.77-49.33-106.46-56.38-13.84-2.34-27.81-2.5-41.8-2.3v-18Z"/>
  <path class="cls-1" d="M128.03,1340.82c.91,3.17-1.92,4.3-3.54,5.71-5.85,5.05-11.74,10.15-19.36,12.47-.97.29-1.21,1-1.18,1.89h-1c-1.55-1.39-3.46-1.02-5.24-.98-31.56.6-62.21-5.17-92.54-13.21-1.96-.52-3.83-1.14-5.16-2.8v-19c21.83,5.78,43.83,10.8,66.26,13.63,10.53,1.33,21.13,2.13,31.78,1.81,1.83-.07,3.57.6,5.4.56,4.67.01,9.35,0,14.02,0,1.91-.06,3.85.2,5.72-.42,1.62.04,3.28-.44,4.86.34Z"/>
  <path class="cls-4" d="M122.96,1340.96c-1.57,1.57-3.48.74-5.27.76-5.17-.57-10.33-.56-15.5,0-1.38-.46-2.76-.92-4.15-1.39,8.27-.03,16.54-.06,24.81-.1.4.1.55.25.45.43-.11.2-.22.3-.34.3Z"/>
  <path class="cls-3" d="M122.96,1340.96c0-.25-.04-.49-.11-.73,1.71-.06,3.43-.11,5.14-.17,0,.25.02.5.04.75-1.69.05-3.38.1-5.07.14Z"/>
  <path class="cls-2" d="M102.18,1341.72c5.17-1.24,10.34-1.29,15.5,0-5.17,0-10.33,0-15.5,0Z"/>
</svg>